<?xml version="1.0" standalone="no"?>
<!DOCTYPE svg PUBLIC "-//W3C//DTD SVG 20010904//EN"
 "http://www.w3.org/TR/2001/REC-SVG-20010904/DTD/svg10.dtd">
<svg version="1.0" xmlns="http://www.w3.org/2000/svg"
 width="700.000000pt" height="700.000000pt" viewBox="0 0 700.000000 700.000000"
 preserveAspectRatio="xMidYMid meet">
<metadata>
Created by potrace 1.11, written by Peter Selinger 2001-2013
</metadata>
<g transform="translate(0.000000,700.000000) scale(0.100000,-0.100000)"
fill="#000000" stroke="none">
<path d="M5708 6562 c-8 -2 -28 -26 -43 -55 -16 -29 -76 -137 -135 -242 -218
-386 -434 -772 -463 -825 -25 -47 -30 -66 -31 -130 -1 -63 4 -83 26 -126 15
-29 46 -68 69 -88 71 -60 109 -66 437 -66 l290 0 -33 -92 c-18 -51 -102 -282
-185 -513 -84 -231 -153 -427 -155 -435 -9 -51 41 -86 108 -75 45 8 68 29 227
215 63 73 153 177 200 230 47 53 112 127 145 165 33 38 80 92 105 120 25 28
70 79 100 114 30 35 62 72 70 81 8 9 40 46 70 80 101 116 117 134 206 236 82
92 142 161 222 255 80 93 79 209 -2 290 -52 52 -73 55 -434 54 -182 0 -332 1
-332 2 0 4 58 99 173 283 203 325 312 505 312 514 0 9 -906 16 -947 8z"/>
<path d="M3418 5715 c-2 -1 -52 -5 -113 -9 -129 -8 -228 -20 -335 -41 -13 -2
-42 -7 -64 -11 -22 -3 -43 -7 -47 -9 -3 -2 -21 -7 -40 -10 -113 -20 -375 -106
-554 -183 -660 -281 -1301 -787 -1835 -1446 -118 -145 -271 -370 -316 -462
-164 -336 -146 -731 47 -1052 38 -62 189 -271 273 -376 79 -100 90 -113 180
-215 73 -83 400 -407 485 -481 229 -201 510 -400 806 -572 73 -42 312 -155
425 -201 217 -89 527 -175 725 -202 28 -4 61 -9 75 -11 187 -26 612 -25 750 1
14 2 41 7 60 9 418 54 898 237 1348 514 302 186 749 550 805 657 31 57 31 183
0 240 -54 100 -150 156 -260 151 -72 -3 -133 -32 -199 -95 -46 -44 -141 -126
-193 -167 -13 -11 -28 -24 -35 -29 -87 -80 -381 -283 -531 -368 -120 -68 -380
-189 -497 -231 -122 -43 -312 -97 -388 -110 -19 -3 -57 -10 -85 -15 -27 -5
-77 -12 -110 -15 -33 -4 -82 -9 -110 -12 -62 -6 -306 -7 -360 0 -22 3 -67 8
-100 11 -33 3 -67 8 -75 10 -8 2 -35 7 -60 10 -25 4 -90 18 -145 31 -55 14
-109 27 -119 29 -104 23 -426 153 -583 236 -141 75 -396 233 -468 291 -5 4
-55 42 -110 85 -283 216 -589 519 -827 818 -84 106 -204 278 -231 332 -24 47
-54 143 -55 173 0 8 -1 40 -2 71 -4 121 28 212 121 351 165 246 374 488 646
748 392 376 861 680 1303 843 216 80 456 136 658 154 152 14 477 7 552 -12 8
-2 40 -7 70 -10 30 -3 73 -11 95 -17 22 -5 49 -12 60 -14 46 -9 61 -13 85 -22
44 -16 152 -14 195 3 211 88 235 376 42 489 -83 49 -367 106 -647 131 -65 6
-308 13 -312 10z"/>
<path d="M3289 4605 c-47 -7 -95 -16 -107 -19 -12 -4 -34 -9 -49 -12 -16 -3
-68 -19 -118 -36 -401 -137 -721 -422 -906 -804 -27 -56 -49 -108 -49 -116 0
-8 -4 -18 -9 -23 -10 -11 -67 -218 -75 -275 -30 -208 -26 -384 14 -578 60
-299 223 -591 447 -802 99 -93 119 -110 218 -175 720 -475 1683 -279 2158 440
361 547 340 1268 -52 1790 -237 314 -568 520 -966 601 -104 21 -390 26 -506 9z
m354 -540 c369 -40 708 -320 831 -687 92 -274 59 -572 -92 -832 -35 -60 -41
-68 -104 -142 -128 -152 -315 -268 -513 -320 -81 -21 -125 -26 -230 -28 -150
-1 -209 6 -320 41 -268 84 -493 279 -612 530 -186 391 -104 856 203 1155 97
94 147 129 265 187 183 90 358 119 572 96z"/>
<path d="M3444 3589 c-175 -23 -332 -135 -407 -290 -174 -359 87 -771 487
-769 275 2 516 241 520 514 1 88 -7 138 -33 205 -89 234 -320 373 -567 340z"/>
<path d="M6411 3891 c-130 -52 -201 -190 -166 -324 7 -27 41 -91 80 -148 62
-92 101 -170 111 -224 2 -11 6 -31 9 -45 18 -87 -3 -237 -44 -318 -11 -20 -31
-60 -46 -88 -54 -104 -40 -221 36 -308 56 -64 115 -90 204 -90 127 0 206 62
288 229 127 257 149 546 63 828 -38 122 -187 377 -254 435 -79 67 -192 88
-281 53z"/>
</g>
</svg>
